<?xml version="1.0" encoding="utf-8"?>
<!-- Generator: Adobe Illustrator 24.1.3, SVG Export Plug-In . SVG Version: 6.00 Build 0)  -->
<svg version="1.1" id="Layer_1" xmlns="http://www.w3.org/2000/svg" xmlns:xlink="http://www.w3.org/1999/xlink" x="0px" y="0px"
	 viewBox="0 0 450.8 155.9" style="enable-background:new 0 0 450.8 155.9;" xml:space="preserve">
<style type="text/css">
	.st0{fill:#FFFFFF;}
</style>
<g>
	<path class="st0" d="M168.7,69.8c0,0.8,0,1.6,0,2.5c0,15.7,0,31.3,0,47c0,1.9-0.5,2.4-2.4,2.3c-5.1-0.1-10.2-0.1-15.3,0
		c-1.4,0-1.7-0.3-1.7-1.7c0-26.5,0-52.9,0-79.4c0-1.8,0.7-1.9,2.1-1.9c6.9,0.1,13.8,0.1,20.6,0c2.1,0,2.8,0.7,3.4,2.6
		c5.7,18.1,11.5,36.1,17.3,54.2c0.1,0.3,0.2,0.5,0.5,1.4c1.7-5.3,3.2-10,4.8-14.7c4.5-13.9,9-27.9,13.5-41.9
		c0.4-1.1,0.9-1.6,2.2-1.6c7.4,0.1,14.7,0.1,22.1,0c1.5,0,1.9,0.4,1.9,1.9c0,26.5,0,52.9,0,79.4c0,1.3-0.3,1.8-1.7,1.7
		c-5.3-0.1-10.6-0.1-15.8,0c-1.7,0-1.9-0.7-1.9-2.1c0-16.1,0-32.1,0-48.2c0-0.8,0-1.7,0-2.5c-0.1,0-0.3,0-0.4-0.1
		c-2.6,7.6-5.2,15.1-7.8,22.7c-3.2,9.5-6.5,19-9.7,28.5c-0.4,1.3-1.1,1.6-2.4,1.6c-3.1-0.1-6.2-0.1-9.4,0c-1.6,0.1-2.1-0.6-2.6-2
		c-5.6-16.4-11.2-32.9-16.8-49.3c-0.1-0.2-0.2-0.4-0.2-0.6C168.9,69.7,168.8,69.7,168.7,69.8z"/>
	<path class="st0" d="M250.7,80.1c0-13,0-26.1,0-39.1c0-1.7,0.2-2.5,2.3-2.4c16.6,0.1,33.3,0.1,49.9,0c1.8,0,2.3,0.5,2.2,2.3
		c-0.1,3.5-0.2,7,0,10.6c0.1,1.9-0.6,2.2-2.3,2.2c-10.2-0.1-20.5,0-30.7-0.1c-1.6,0-2.2,0.3-2.2,2.1c0.1,4.6,0.1,9.1,0,13.7
		c-0.1,1.8,0.6,2,2.2,2c8.3-0.1,16.6,0,24.9-0.1c1.7,0,2.4,0.2,2.3,2.1c-0.2,3.7-0.1,7.4,0,11c0,1.5-0.3,1.9-1.8,1.9
		c-8.5-0.1-17,0-25.4-0.1c-1.7,0-2.1,0.5-2.1,2.1c0.1,5.5,0.1,11,0,16.6c0,1.6,0.4,2,2,2c10.3-0.1,20.6,0,30.9-0.1
		c1.8,0,2.3,0.4,2.2,2.2c-0.2,3.7-0.1,7.4,0,11c0,1.4-0.4,1.7-1.7,1.7c-17,0-33.9-0.1-50.9,0c-1.9,0-1.8-0.9-1.8-2.2
		C250.7,106.3,250.7,93.2,250.7,80.1z"/>
	<path class="st0" d="M353.4,53.5c-11,0-22.1-0.1-33.1,0c-1.9,0-2.4-0.6-2.3-2.4c0.1-3.4,0.2-6.7,0-10.1c-0.1-2,0.5-2.5,2.5-2.5
		c16.6,0.1,33.2,0,49.9,0c19.2,0,38.4,0,57.5,0c1.8,0,2.5,0.3,2.4,2.3c-0.2,3.5-0.1,7,0,10.5c0.1,1.6-0.3,2.2-2.1,2.1
		c-5.8-0.1-11.7,0-17.5-0.1c-2,0-2.5,0.4-2.5,2.5c0.1,21.1,0,42.2,0.1,63.3c0,1.8-0.3,2.5-2.3,2.4c-4.9-0.2-9.9-0.1-14.9,0
		c-1.8,0-2.2-0.4-2.2-2.2c0.1-21.1,0-42.2,0.1-63.3c0-2.3-0.7-2.7-2.8-2.7C375.3,53.5,364.4,53.5,353.4,53.5z"/>
	<path class="st0" d="M337,68.2c4.7-6.3,10.3-9.6,17.7-9.5c8.9,0.1,15.1,4.9,17.5,13.5c1,3.6,1.4,7.4,1.4,11.1c0,12.1,0,24.1,0,36.2
		c0,1.5-0.3,2-1.9,2c-5.2-0.1-10.4-0.1-15.6,0c-1.5,0-1.8-0.4-1.8-1.8c0.1-11.2,0.1-22.4,0-33.6c0-2.5-0.1-5.1-0.8-7.6
		c-1-3.3-3.1-4.9-6.5-5c-1.8-0.1-3.5,0.3-5.1,0.9c-3.6,1.4-4.5,2.8-4.5,6.6c0,12.7,0,25.4,0,38.1c0,1.9-0.6,2.3-2.4,2.3
		c-5.1-0.1-10.2-0.1-15.3,0c-1.4,0-1.7-0.4-1.7-1.8c0-19.3,0.1-38.7,0-58c0-1.7,0.6-2,2.1-1.9c4.8,0.1,9.6,0.1,14.4,0
		c1.5,0,1.9,0.5,2,1.9C336.6,63.7,336.8,65.6,337,68.2z"/>
	<path class="st0" d="M80.7,80c0-13,0-26.1,0-39.1c0-1.8,0.4-2.5,2.4-2.4c5,0.1,9.9,0.2,14.9,0c2-0.1,2.3,0.6,2.3,2.4
		c-0.1,21.1,0,42.2-0.1,63.3c0,2,0.5,2.5,2.5,2.4c10.4-0.1,20.8,0,31.2-0.1c1.6,0,2,0.4,2,2c-0.1,3.8-0.1,7.5,0,11.3
		c0,1.4-0.4,1.7-1.7,1.7c-17.2,0-34.4-0.1-51.6,0c-1.7,0-1.7-0.7-1.7-2C80.7,106.4,80.7,93.2,80.7,80z"/>
	<path class="st0" d="M135.6,82.1c0,5.5,0,11,0,16.5c0,1.3-0.4,1.8-1.7,1.7c-5.3-0.1-10.5-0.1-15.8,0c-1.4,0-2-0.3-1.9-1.8
		c0.1-11,0.1-22.1,0-33.1c0-1.3,0.5-1.6,1.7-1.5c5.4,0,10.9,0.1,16.3,0c1.4,0,1.5,0.5,1.5,1.6C135.6,71.1,135.6,76.6,135.6,82.1z"/>
	<path class="st0" d="M362,140.3c-0.2-4,0.6-7.7,3-11.1c2.5-3.5,6.9-4.9,11.3-3.7c3.7,1,6.5,4.5,6.9,8.6c0.1,1.4,0,2-1.7,2
		c-2.1,0-3.7,0.1-4-2.8c-0.2-2.1-1.7-3.6-4-3.8c-2.4-0.1-4,1.1-4.7,3.3c-1.7,5-1.8,10-0.1,15c0.9,2.6,2.7,3.7,5,3.5
		c2.1-0.2,3.6-1.7,4.2-4.3c0.3-1.4,2.3-2.1,4.5-1.5c1.5,0.4,0.7,1.6,0.6,2.3c-0.8,4-3.3,6.6-7.2,7.5c-4.1,0.9-7.8,0.1-10.6-3.3
		C362.6,148.6,361.9,144.6,362,140.3z"/>
	<path class="st0" d="M419.1,155c-2.6,0.8-3-0.5-2.9-2.8c0.1-6.8,0-13.6,0.1-20.4c0-1.6-0.2-2.5-2-2.1c-1.7,0.3-1.8-0.6-1.9-2
		c-0.1-1.6,0.5-2.2,2-1.9c1.7,0.3,2-0.6,1.9-2c-0.1-1.2,0-2.4,0.1-3.6c0.5-5.8,5.2-9.1,10.8-7.8c1.7,0.4,1.2,1.5,1.1,2.4
		c-0.1,0.8,0.4,2-1.3,2c-4,0.1-4.7,1-5.1,4.9c0,0.3,0,0.6,0,1c-0.1,3.1-0.1,3.2,2.9,3.1c1.5,0,2.1,0.2,2.1,1.9c0,1.7-0.6,2.3-2.2,2
		c-2.5-0.5-3,0.6-2.9,2.9c0.2,6.6,0,13.1,0.1,19.7C421.9,154.4,421.7,155.8,419.1,155z"/>
	<path class="st0" d="M28.6,13c1.4-1.8,2.7-2.8,4.4-3.1c3.5-0.7,6.8,1.4,7.5,5.3c1.1,5.8,0.5,11.6,0.4,17.5c0,2-2,0.7-3.1,1
		c-1.1,0.3-1.5-0.4-1.5-1.5c0-4.2,0-8.3,0-12.5c0-1,0-1.9-0.1-2.9c-0.4-2.4-1.7-3.6-3.8-3.4c-2.3,0.2-3.8,1.8-3.8,4
		c0,4.8-0.1,9.6,0,14.4c0,1.7-0.6,2-2.1,1.9c-1.3-0.1-2.6,0.4-2.6-1.9c0.1-10,0.1-20,0-30c0-2.2,1.2-1.7,2.4-1.8
		c1.1,0,2.3-0.4,2.2,1.7C28.5,5.3,28.6,8.8,28.6,13z"/>
	<path class="st0" d="M126.2,38.6c2.6,0,5.1,0.1,7.6,0c1.2,0,1.9,0.1,1.8,1.6c-0.1,3-0.1,6.1,0,9.1c0,1.2-0.3,1.5-1.5,1.5
		c-5.5,0-11,0-16.5,0c-1.2,0-1.5-0.4-1.5-1.5c0.1-3,0.1-6.1,0-9.1c0-1.3,0.4-1.6,1.7-1.6C120.6,38.6,123.4,38.6,126.2,38.6z"/>
	<path class="st0" d="M12.8,19.8c0,3.9-0.1,7.8,0,11.7c0.1,1.9-0.5,2.3-2.3,2.2c-1.6-0.1-2.4-0.1-2.4-2.1c0.1-7.9,0-15.8,0.1-23.7
		C8.3,6,7.8,5.4,6,5.6c-1.3,0.1-2.7,0-4.1,0C0.7,5.7,0,5.6,0,4c0-1.6,0.6-1.8,2-1.8c5.8,0.1,11.5,0.1,17.3,0c1.3,0,1.8,0.2,1.8,1.7
		c0,1.4-0.4,1.9-1.8,1.7c-0.2,0-0.3,0-0.5,0c-2,0.2-4.6-0.9-5.7,0.4c-1,1.1-0.3,3.6-0.3,5.6C12.8,14.3,12.8,17,12.8,19.8z"/>
	<path class="st0" d="M448.7,113.1c-2.4,2.6-4.3,4.8-6.4,6.9c-1.3,1.3-3.2,0.3-5.3,0.7c1.7-2.6,3.1-4.8,4.6-7
		c0.6-0.9,1.6-0.5,2.4-0.5C445.4,113.1,446.7,113.1,448.7,113.1z"/>
	<path class="st0" d="M74.3,119.5C65.6,93.1,57,66.7,48.4,40.2c-0.4-1.4-1-1.7-2.3-1.7c-5.5,0.1-11,0.1-16.5,0
		c-2-0.1-2.7,0.7-3.3,2.4c-7.5,23-15,46-22.5,69c-1.2,3.8-2.4,7.5-3.7,11.5c6.6,0,12.9,0,19.2,0c1.3,0,1.4-0.7,1.6-1.6
		c1.3-4.4,2.6-8.7,3.8-13.1c0.3-1.2,0.8-1.5,2-1.5c7.1,0,14.2,0.1,21.3,0c1.3,0,1.8,0.4,2.2,1.6c1.2,4.3,2.6,8.5,3.8,12.8
		c0.4,1.3,0.9,1.8,2.3,1.7c5.5-0.1,11-0.1,16.5,0C74.7,121.6,74.9,121.2,74.3,119.5z M43.6,90.6c-4.2-0.1-8.3-0.1-12.5,0
		c-1.1,0-1.4-0.3-1.1-1.4c2.4-8,4.8-16,7.4-24.6c2.6,8.5,5,16.4,7.4,24.3C45.2,90.2,45,90.6,43.6,90.6z"/>
	<path class="st0" d="M408.2,147c0-4.5,0.1-8.9-0.1-13.4c-0.2-4.4-3.1-7.5-7.3-8.2c-5.4-0.9-10.2,1.2-11.9,5.3
		c-1.1,2.7-0.7,3.3,2.1,3.4c1.7,0.1,2.9-0.1,3.3-2.1c0.4-1.7,2-2.5,3.7-2.5c1.8,0,3.2,0.7,4,2.4c0.6,1.2,0.5,2.5,0.7,3.7
		c0.2,1.7-0.2,2.6-2.2,2.4c-2.5-0.2-5.1-0.1-7.6,0.8c-3.6,1.3-5.7,4.1-5.8,7.9c-0.1,4.1,1.6,7.2,4.7,8.4c3.7,1.5,7,0.5,9.9-2.7
		c0.3-0.3,0.4-0.9,1.1-0.7c0.7,3.7,0.7,3.7,6.4,3.3C408.4,152.3,408.2,149.7,408.2,147z M402.6,144.2c0.4,3.2-1,5.3-3.6,6.6
		c-3.6,1.7-6.5-0.3-6.2-4.2c0.2-2.7,1.9-4.6,4.6-4.9c0.8-0.1,1.6,0,2.4-0.2C402.1,141,403.2,141.9,402.6,144.2z"/>
	<path class="st0" d="M436.3,141.4c2.2,0.1,4.3,0,6.5,0c2.2,0,4.3-0.1,6.5,0c1.3,0,1.7-0.4,1.6-1.7c-0.2-2-0.2-4-0.5-6
		c-1.2-6.4-5.8-9.6-11.9-8.5c-3.8,0.7-6.1,3.2-7.6,6.6c-2,4.6-2,9.4-1,14.1c2,9.1,11.5,12.6,19.2,7.3c2.1-1.5,0.6-2.5,0-3.7
		c-0.8-1.8-1.6-0.1-2.1,0.2c-5.9,3.7-11.1,1.2-11.9-5.7c0-0.4,0-0.8-0.1-1.2C434.6,141.8,435.1,141.4,436.3,141.4z M435.6,134
		c0.5-1.6,1.3-3.1,2.9-4c2.8-1.5,5.4,0,6.3,3.6c1,3.7,0.9,3.8-2.8,3.8c-0.6,0-1.3,0-1.9,0c-0.7,0-1.4,0-2.2,0
		C434.5,137.4,434.5,137.4,435.6,134z"/>
	<path class="st0" d="M50.9,22.6c2.1,0.1,4.1,0,6.2,0c5.4,0,5.4,0,4.6-5.4c-0.6-4.2-3.1-6.9-6.7-7.4c-3.8-0.5-7,1.3-8.8,5.1
		c-1.7,3.7-1.7,7.6-0.9,11.5c1.5,6.6,7.5,9.4,13.6,6.5c2.8-1.4,2.9-1.5,1.1-4.5c-5.8,4-9.9,2.4-10.7-4.2
		C49.2,22.9,49.6,22.6,50.9,22.6z M52.9,13.4c1.8-0.5,3.1,0.2,3.9,1.9c0.1,0.2,0.2,0.5,0.2,0.7c1.1,3.1,0.8,3.6-2.5,3.6
		c-0.4,0-0.8,0-1.2,0c-0.2,0-0.3,0-0.5,0c-1.1-0.4-2.7,0.9-3.3-0.8C49.1,17,51.2,13.9,52.9,13.4z"/>
</g>
</svg>
